<svg width="169" height="30" viewBox="0 0 169 30" fill="none" xmlns="http://www.w3.org/2000/svg">
<path d="M49 0H0V30H49V0Z" fill="#6F3C2E"/>
<path d="M6.05971 9.00014C7.61876 8.99995 9.17801 8.99995 10.7371 9.00014C10.9024 8.99957 11.0688 9.01791 11.227 9.07005C11.4679 9.14729 11.6885 9.29907 11.847 9.50782C11.9787 9.68104 12.066 9.88998 12.1087 10.1074C12.5134 12.3729 12.9189 14.6383 13.324 16.9036C14.3032 14.2694 15.2819 11.6349 16.2605 9.00034C17.2472 8.99976 18.2337 9.00014 19.2203 9.00014C17.697 12.8752 16.1735 16.7501 14.6502 20.625C13.6615 20.6252 12.6727 20.625 11.684 20.6252C10.936 17.5611 10.1912 14.4963 9.44187 11.4329C9.38198 11.1929 9.31992 10.9465 9.18617 10.7391C9.08182 10.5736 8.93065 10.4494 8.77059 10.3494C8.52324 10.1955 8.25429 10.0864 7.98607 9.98113C7.3451 9.70885 6.67636 9.51458 6 9.37091C6.0196 9.24732 6.03992 9.12373 6.05971 9.00014Z" fill="white"/>
<path d="M21.5418 9.00014C22.4798 8.99995 23.4179 8.99995 24.3557 9.00014C23.5847 12.8752 22.8136 16.7501 22.0421 20.625C21.1015 20.625 20.1608 20.625 19.2202 20.625C19.9938 16.7499 20.768 12.875 21.5418 9.00014Z" fill="white"/>
<path d="M27.477 9.64411C28.3301 9.18336 29.2959 8.99489 30.2476 9.00011C31.0288 9.00764 31.8103 9.13238 32.556 9.38188C32.6728 9.42185 32.7888 9.46568 32.9029 9.51473C32.7365 10.3327 32.5701 11.1509 32.4039 11.9689C32.0331 11.7832 31.6408 11.6487 31.2417 11.5522C30.8261 11.4553 30.4002 11.4023 29.9746 11.4162C29.6229 11.4305 29.2649 11.497 28.952 11.6758C28.7602 11.7866 28.5836 11.9483 28.4963 12.1659C28.4263 12.3354 28.4323 12.5368 28.5107 12.7021C28.6032 12.9016 28.7667 13.0492 28.9326 13.1782C29.2364 13.4076 29.5701 13.5858 29.8977 13.7727C30.4577 14.0896 31.021 14.4204 31.4887 14.8829C31.7351 15.1279 31.9506 15.412 32.1035 15.7331C32.2661 16.0699 32.3551 16.4443 32.375 16.8217C32.411 17.5553 32.2554 18.307 31.8881 18.9333C31.5558 19.5076 31.0615 19.9622 30.5075 20.2825C29.8834 20.6436 29.187 20.8479 28.4844 20.9402C27.5855 21.0575 26.671 20.9968 25.7849 20.8057C25.2984 20.6969 24.8162 20.5565 24.356 20.3546C24.5258 19.5076 24.6957 18.6606 24.8659 17.8139C25.2534 18.044 25.6702 18.2142 26.0965 18.3432C26.55 18.4774 27.0178 18.56 27.4888 18.5747C27.8748 18.589 28.2689 18.5519 28.6326 18.4055C28.874 18.308 29.1048 18.1586 29.2629 17.9373C29.3885 17.7638 29.4569 17.5387 29.4277 17.3197C29.4028 17.1181 29.293 16.9406 29.1611 16.7985C28.9415 16.5662 28.6731 16.3959 28.4063 16.2323C27.7512 15.8395 27.0603 15.4958 26.483 14.9738C26.1101 14.6375 25.7943 14.2124 25.6404 13.7134C25.4953 13.2577 25.4927 12.7645 25.5597 12.2928C25.6428 11.7173 25.8695 11.1662 26.2132 10.713C26.5525 10.2619 26.9952 9.90674 27.477 9.64411Z" fill="white"/>
<path d="M37.9594 9.05062C38.1645 8.99018 38.3794 9.00119 38.5899 9.00022C39.3005 9.00022 40.0112 9.00041 40.7218 9.00022C41.4813 12.8753 42.241 16.7502 42.9999 20.6254C42.1297 20.6254 41.2596 20.6249 40.3894 20.6256C40.2721 20.039 40.1573 19.4519 40.0404 18.8653C38.8387 18.8657 37.6368 18.8655 36.435 18.8655C36.2438 19.4519 36.0534 20.0388 35.8621 20.6252C34.8758 20.625 33.8893 20.6256 32.9028 20.625C34.2453 17.1962 35.5881 13.7674 36.9306 10.3386C37.0468 10.042 37.1549 9.73461 37.3477 9.48241C37.5014 9.27405 37.7168 9.11531 37.9594 9.05062ZM37.2553 16.503C38.0385 16.5032 38.822 16.5032 39.6052 16.503C39.3132 15.0491 39.0201 13.5954 38.7285 12.1415C38.2367 13.595 37.7464 15.0493 37.2553 16.503Z" fill="white"/>
<path d="M109 0H60V30H109V0Z" fill="#6F3C2E"/>
<path d="M102.264 15.0556C102.265 20.4929 97.5061 24.9016 91.6338 24.903C85.7613 24.9043 81.0001 20.4979 80.9985 15.0606C80.9985 15.0588 80.9985 15.0573 80.9985 15.0556C80.997 9.61834 85.7562 5.20945 91.6283 5.20801C97.5007 5.20656 102.262 9.61323 102.264 15.0506C102.264 15.0522 102.264 15.0538 102.264 15.0556Z" fill="white"/>
<path d="M77.2999 5.21099C71.4624 5.24532 66.7358 9.64276 66.7358 15.056C66.7358 20.4903 71.4992 24.9009 77.3684 24.9009C80.123 24.9009 82.6339 23.9289 84.5233 22.3358C84.5232 22.3358 84.523 22.3355 84.5225 22.3353H84.5248C84.9116 22.0089 85.2725 21.6567 85.6042 21.2811H83.4258C83.1349 20.9558 82.8706 20.6168 82.6331 20.267H86.39C86.6185 19.9284 86.8254 19.5769 87.009 19.2128H82.0128C81.8425 18.8748 81.6947 18.5291 81.5684 18.1784H87.4538C87.8086 17.1971 88.001 16.1472 88.001 15.0559C88.001 14.3323 87.9163 13.6269 87.756 12.9477H81.2563C81.3368 12.5981 81.4385 12.2528 81.5597 11.9134H87.4472C87.3156 11.5523 87.1627 11.2004 86.9888 10.8593H82.0122C82.1917 10.5042 82.3951 10.1588 82.6223 9.82521H86.3765C86.1266 9.45665 85.8502 9.10454 85.5512 8.77099H83.4581C83.7817 8.41832 84.138 8.08621 84.5248 7.77654C82.6352 6.18321 80.1236 5.21099 77.3684 5.21099C77.3455 5.21099 77.3228 5.21088 77.2999 5.21099Z" fill="white"/>
<path d="M101.197 20.2021C101.255 20.2021 101.311 20.216 101.366 20.2434C101.421 20.2707 101.464 20.3101 101.495 20.3614C101.525 20.412 101.541 20.4655 101.541 20.5208C101.541 20.5755 101.525 20.6284 101.495 20.679C101.465 20.7296 101.423 20.769 101.368 20.7971C101.314 20.8248 101.256 20.8388 101.197 20.8388C101.137 20.8388 101.08 20.8248 101.026 20.7971C100.971 20.7689 100.929 20.7297 100.898 20.679C100.868 20.6284 100.853 20.5755 100.853 20.5208C100.853 20.4655 100.868 20.412 100.899 20.3614C100.93 20.3101 100.973 20.271 101.028 20.2434C101.083 20.216 101.139 20.2021 101.197 20.2021ZM101.197 20.2549C101.149 20.2549 101.102 20.2665 101.056 20.2895C101.01 20.3125 100.975 20.345 100.949 20.3881C100.923 20.4306 100.91 20.4746 100.91 20.5208C100.91 20.5666 100.923 20.6108 100.948 20.6528C100.974 20.6947 101.009 20.7276 101.054 20.7511C101.1 20.7746 101.148 20.7861 101.197 20.7861C101.247 20.7861 101.294 20.7746 101.34 20.7511C101.385 20.7276 101.42 20.6947 101.446 20.6528C101.471 20.6108 101.483 20.5667 101.483 20.5208C101.483 20.4746 101.471 20.4305 101.445 20.3881C101.419 20.345 101.383 20.3125 101.337 20.2895C101.292 20.2664 101.245 20.2549 101.197 20.2549ZM101.046 20.6966V20.3541H101.174C101.217 20.3541 101.248 20.3573 101.268 20.3639C101.287 20.3703 101.303 20.381 101.314 20.3969C101.326 20.4126 101.332 20.4293 101.332 20.447C101.332 20.4721 101.322 20.4939 101.303 20.5124C101.284 20.5308 101.258 20.5414 101.226 20.5436C101.239 20.5486 101.25 20.5549 101.258 20.5618C101.273 20.5751 101.291 20.5977 101.312 20.6296L101.357 20.6966H101.285L101.252 20.6427C101.226 20.6003 101.205 20.5738 101.189 20.5629C101.178 20.5553 101.163 20.5513 101.142 20.5513H101.107V20.6969H101.047M101.106 20.5038H101.179C101.213 20.5038 101.237 20.4989 101.249 20.4895C101.262 20.4797 101.268 20.4673 101.268 20.4515C101.268 20.4413 101.265 20.4321 101.259 20.4244C101.253 20.4163 101.245 20.4105 101.234 20.4064C101.223 20.4025 101.203 20.4003 101.174 20.4003H101.106V20.5038Z" fill="white"/>
<path d="M80.8969 17.8788L81.0385 16.9876C80.9611 16.9876 80.8474 17.0186 80.7468 17.0186C80.3527 17.0186 80.3035 16.8236 80.3345 16.6812L80.7228 14.889H81.3218L81.4453 13.8775H80.8807L80.9957 13.2646H79.8146C79.7897 13.2878 79.1465 16.7115 79.1465 17.1286C79.1465 17.7459 79.5206 18.0205 80.0484 18.0162C80.4614 18.013 80.7834 17.9071 80.8969 17.8788Z" fill="white"/>
<path d="M81.2554 16.18C81.2554 17.6613 82.3113 18.0132 83.211 18.0132C84.0415 18.0132 84.477 17.835 84.477 17.835L84.6765 16.8239C84.6765 16.8239 83.9747 17.0881 83.4043 17.0881C82.1886 17.0881 82.4017 16.2487 82.4017 16.2487L84.7373 16.2553C84.7373 16.2553 84.886 15.5763 84.886 15.2995C84.886 14.6087 84.4795 13.7607 83.2366 13.7607C82.0983 13.761 81.2554 14.8966 81.2554 16.18ZM83.2409 14.6994C83.8798 14.6994 83.7619 15.3643 83.7619 15.4182H82.5051C82.5051 15.3493 82.6237 14.6994 83.2409 14.6994Z" fill="white"/>
<path d="M90.4092 17.8788L90.6119 16.7361C90.6119 16.7361 90.056 16.994 89.675 16.994C88.8719 16.994 88.5497 16.4262 88.5497 15.8161C88.5497 14.5786 89.2406 13.8978 90.0098 13.8978C90.5868 13.8978 91.0496 14.1976 91.0496 14.1976L91.2344 13.0873C91.2344 13.0873 90.688 12.7219 90.0997 12.7198C88.3303 12.7133 87.3179 13.854 87.3179 15.8259C87.3179 17.1329 88.0676 18.0223 89.4186 18.0223C89.8006 18.0223 90.4092 17.8788 90.4092 17.8788Z" fill="white"/>
<path d="M74.6702 13.7773C73.894 13.7773 73.299 14.0083 73.299 14.0083L73.1346 14.9113C73.1346 14.9113 73.6258 14.7266 74.3683 14.7266C74.7899 14.7266 75.0983 14.7705 75.0983 15.0877C75.0983 15.2803 75.0606 15.3515 75.0606 15.3515C75.0606 15.3515 74.728 15.3258 74.5739 15.3258C73.4687 15.3258 72.5664 15.7127 72.5664 16.8791C72.5664 17.7983 73.2412 18.0091 73.6594 18.0091C74.4582 18.0091 74.7744 17.5421 74.7926 17.5408L74.7834 17.9283C74.7834 17.9283 75.7801 17.9283 75.7802 17.9283L76.225 15.0417C76.225 13.8167 75.071 13.7773 74.6702 13.7773ZM74.8428 16.1213C74.8645 16.2976 74.7936 17.1309 74.1118 17.1309C73.7602 17.1309 73.6688 16.882 73.6688 16.7351C73.6688 16.448 73.8372 16.1037 74.6666 16.1037C74.8598 16.1037 74.8103 16.1166 74.8428 16.1213Z" fill="white"/>
<path d="M77.2846 17.9882C77.5396 17.9882 78.9972 18.0483 78.9972 16.6555C78.9972 15.3532 77.648 15.6106 77.648 15.0873C77.648 14.8271 77.8679 14.7451 78.27 14.7451C78.4295 14.7451 79.0437 14.7921 79.0437 14.7921L79.1864 13.8665C79.1864 13.8666 78.7889 13.7842 78.1419 13.7842C77.3044 13.7842 76.4543 14.0937 76.4543 15.1528C76.4543 16.3531 77.8718 16.2325 77.8718 16.7381C77.8718 17.0755 77.4758 17.1033 77.1705 17.1033C76.6424 17.1033 76.1669 16.9354 76.1652 16.9435L76.0142 17.8596C76.0416 17.8674 76.335 17.9882 77.2846 17.9882Z" fill="white"/>
<path d="M99.7473 12.9375L99.5427 14.3496C99.5427 14.3496 99.1163 13.8046 98.4492 13.8046C97.1942 13.8046 96.5474 14.9627 96.5474 16.2931C96.5474 17.1519 97.0086 17.9938 97.9512 17.9938C98.6294 17.9938 99.0053 17.5559 99.0053 17.5559L98.9555 17.9298H100.057L100.922 12.9452L99.7473 12.9375ZM99.261 15.6821C99.261 16.2357 98.9649 16.9754 98.3513 16.9754C97.9438 16.9754 97.7528 16.6586 97.7528 16.1616C97.7528 15.3488 98.147 14.8127 98.6446 14.8127C99.0519 14.8127 99.261 15.0716 99.261 15.6821Z" fill="white"/>
<path d="M68.5405 17.934L69.2297 14.1707L69.3309 17.934H70.1108L71.5658 14.1707L70.9213 17.934H72.0803L72.9727 12.9427L71.1317 12.9297L70.0365 15.9857L70.0065 12.9427H68.3193L67.4141 17.934H68.5405Z" fill="white"/>
<path d="M85.9825 17.9413C86.312 16.2063 86.4294 14.8361 87.3903 15.1199C87.5283 14.4483 87.8573 13.8643 88.0075 13.5801C88.0075 13.5801 87.96 13.5146 87.663 13.5146C87.156 13.5146 86.4791 14.4673 86.4791 14.4673L86.5802 13.8783H85.5259L84.8198 17.9412H85.9825V17.9413Z" fill="white"/>
<path d="M92.7807 13.7773C92.0041 13.7773 91.4091 14.0083 91.4091 14.0083L91.2448 14.9113C91.2448 14.9113 91.7362 14.7266 92.4784 14.7266C92.9001 14.7266 93.2084 14.7705 93.2084 15.0877C93.2084 15.2803 93.1708 15.3515 93.1708 15.3515C93.1708 15.3515 92.8383 15.3258 92.6842 15.3258C91.5789 15.3258 90.6768 15.7127 90.6768 16.8791C90.6768 17.7983 91.3514 18.0091 91.7696 18.0091C92.5682 18.0091 92.8846 17.5421 92.9028 17.5408L92.8934 17.9283H93.8905L94.3351 15.0417C94.3352 13.8167 93.1813 13.7773 92.7807 13.7773ZM92.953 16.1213C92.9746 16.2976 92.9037 17.1309 92.222 17.1309C91.8702 17.1309 91.779 16.882 91.779 16.7351C91.779 16.448 91.9472 16.1037 92.7768 16.1037C92.9701 16.1037 92.9206 16.1166 92.953 16.1213Z" fill="white"/>
<path d="M95.4827 17.941C95.6637 16.6646 95.9986 14.8726 96.8905 15.1196C97.0283 14.448 96.8954 14.4498 96.5985 14.4498C96.0911 14.4498 95.9788 14.4669 95.9788 14.4669L96.0801 13.8779H95.0259L94.3198 17.9409H95.4827V17.941Z" fill="white"/>
<path d="M81.1916 17.5615L81.3333 16.6705C81.2559 16.6705 81.142 16.7012 81.0416 16.7012C80.6475 16.7012 80.6041 16.5072 80.6292 16.3637L80.9475 14.5457H81.5464L81.691 13.5602H81.1263L81.2413 12.9473H80.1092C80.0842 12.9704 79.4409 16.3943 79.4409 16.8112C79.4409 17.4284 79.8152 17.7033 80.343 17.6988C80.7562 17.6956 81.0781 17.5897 81.1916 17.5615Z" fill="#6F3C2E"/>
<path d="M81.5503 15.8627C81.5503 17.344 82.6063 17.696 83.5059 17.696C84.3363 17.696 84.7017 17.5241 84.7017 17.5241L84.9012 16.5131C84.9012 16.5131 84.2695 16.7708 83.699 16.7708C82.4834 16.7708 82.6963 15.9316 82.6963 15.9316H84.9969C84.9969 15.9316 85.1455 15.2524 85.1455 14.9756C85.1455 14.2849 84.7742 13.4434 83.5313 13.4434C82.3929 13.4436 81.5503 14.5792 81.5503 15.8627ZM83.5356 14.3821C84.1745 14.3821 84.0566 15.0469 84.0566 15.1007H82.7997C82.7997 15.032 82.9185 14.3821 83.5356 14.3821Z" fill="#6F3C2E"/>
<path d="M90.7046 17.5613L90.9072 16.4185C90.9072 16.4185 90.3517 16.6764 89.9704 16.6764C89.1674 16.6764 88.8453 16.1086 88.8453 15.4986C88.8453 14.2611 89.5363 13.5804 90.3055 13.5804C90.8823 13.5804 91.3453 13.8803 91.3453 13.8803L91.5301 12.7699C91.5301 12.7699 90.8436 12.5127 90.2551 12.5127C88.9482 12.5127 87.6768 13.5625 87.6768 15.534C87.6768 16.8414 88.3633 17.7048 89.7142 17.7048C90.0962 17.7049 90.7046 17.5613 90.7046 17.5613Z" fill="#6F3C2E"/>
<path d="M74.9653 13.46C74.189 13.46 73.5939 13.691 73.5939 13.691L73.4296 14.594C73.4296 14.594 73.9208 14.4092 74.6632 14.4092C75.0848 14.4092 75.3932 14.4531 75.3932 14.7703C75.3932 14.963 75.3554 15.0341 75.3554 15.0341C75.3554 15.0341 75.0229 15.0083 74.8689 15.0083C73.8898 15.0083 72.8613 15.3952 72.8613 16.5616C72.8613 17.4807 73.5361 17.6916 73.9543 17.6916C74.753 17.6916 75.0973 17.2117 75.1156 17.2103L75.0783 17.6108H76.0752L76.5199 14.7241C76.5199 13.4994 75.3661 13.46 74.9653 13.46ZM75.2078 15.8104C75.2294 15.9867 75.0884 16.8133 74.4068 16.8133C74.0552 16.8133 73.9638 16.5646 73.9638 16.4175C73.9638 16.1306 74.1321 15.7862 74.9617 15.7862C75.1546 15.7864 75.1753 15.8055 75.2078 15.8104Z" fill="#6F3C2E"/>
<path d="M77.5794 17.6709C77.8344 17.6709 79.2922 17.7309 79.2922 16.3381C79.2922 15.036 77.9428 15.2932 77.9428 14.7701C77.9428 14.5097 78.1627 14.4277 78.5647 14.4277C78.7243 14.4277 79.3384 14.4747 79.3384 14.4747L79.4812 13.5491C79.4812 13.5492 79.0837 13.4668 78.4367 13.4668C77.5992 13.4668 76.7491 13.7764 76.7491 14.8355C76.7491 16.0356 78.1666 15.9151 78.1666 16.4207C78.1666 16.7581 77.7706 16.7856 77.4654 16.7856C76.9373 16.7856 76.4617 16.6178 76.46 16.6258L76.3091 17.542C76.3364 17.5498 76.6297 17.6709 77.5794 17.6709Z" fill="#6F3C2E"/>
<path d="M100.082 12.6296L99.8379 14.0326C99.8379 14.0326 99.4117 13.4876 98.7447 13.4876C97.7074 13.4876 96.8428 14.6456 96.8428 15.9762C96.8428 16.835 97.3039 17.6766 98.2467 17.6766C98.9248 17.6766 99.3007 17.2388 99.3007 17.2388L99.2509 17.6127H100.352L101.217 12.6279L100.082 12.6296ZM99.5563 15.3652C99.5563 15.9188 99.2603 16.6584 98.6465 16.6584C98.2391 16.6584 98.0482 16.3417 98.0482 15.8447C98.0482 15.032 98.4424 14.4958 98.9398 14.4958C99.3473 14.4957 99.5563 14.7549 99.5563 15.3652Z" fill="#6F3C2E"/>
<path d="M68.8357 17.6164L69.5248 13.8531L69.626 17.6164H70.406L71.861 13.8531L71.2165 17.6164H72.3754L73.268 12.625H71.4758L70.3597 15.6876L70.3016 12.625H68.6495L67.7441 17.6164H68.8357Z" fill="#6F3C2E"/>
<path d="M86.2778 17.6241C86.6073 15.889 86.6684 14.4801 87.4548 14.738C87.5924 14.0665 87.7252 13.8067 87.8755 13.5225C87.8755 13.5225 87.805 13.5088 87.6572 13.5088C87.1502 13.5088 86.7746 14.1501 86.7746 14.1501L86.8755 13.5611H85.8214L85.1152 17.6241H86.2778Z" fill="#6F3C2E"/>
<path d="M93.3167 13.46C92.5404 13.46 91.9454 13.691 91.9454 13.691L91.7812 14.594C91.7812 14.594 92.2724 14.4092 93.0148 14.4092C93.4364 14.4092 93.7445 14.4531 93.7445 14.7703C93.7445 14.963 93.707 15.0341 93.707 15.0341C93.707 15.0341 93.3745 15.0083 93.2204 15.0083C92.2414 15.0083 91.2129 15.3952 91.2129 16.5616C91.2129 17.4807 91.8875 17.6916 92.3057 17.6916C93.1044 17.6916 93.4487 17.2117 93.467 17.2103L93.4299 17.6108C93.4299 17.6108 94.4264 17.6108 94.4267 17.6108L94.8713 14.7241C94.8715 13.4994 93.7175 13.46 93.3167 13.46ZM93.5596 15.8104C93.5812 15.9867 93.4401 16.8133 92.7582 16.8133C92.4066 16.8133 92.3154 16.5646 92.3154 16.4175C92.3154 16.1306 92.4838 15.7862 93.3132 15.7862C93.5062 15.7864 93.5267 15.8055 93.5596 15.8104Z" fill="#6F3C2E"/>
<path d="M95.7826 17.6241C96.1122 15.889 96.1733 14.4801 96.9594 14.738C97.0973 14.0665 97.2302 13.8067 97.3804 13.5225C97.3804 13.5225 97.3099 13.5088 97.1621 13.5088C96.6551 13.5088 96.2795 14.1501 96.2795 14.1501L96.3804 13.5611H95.3263L94.6201 17.6241H95.7826Z" fill="#6F3C2E"/>
<path d="M101.192 16.9971C101.25 16.9971 101.307 17.0107 101.361 17.0385C101.416 17.0654 101.459 17.105 101.49 17.1562C101.521 17.2071 101.536 17.2601 101.536 17.3155C101.536 17.3703 101.521 17.4232 101.49 17.4737C101.46 17.5243 101.418 17.564 101.363 17.5918C101.309 17.6196 101.252 17.6336 101.192 17.6336C101.133 17.6336 101.075 17.6196 101.021 17.5918C100.966 17.5637 100.924 17.5243 100.894 17.4737C100.863 17.4232 100.848 17.3703 100.848 17.3155C100.848 17.2601 100.863 17.2071 100.894 17.1562C100.925 17.105 100.968 17.0656 101.023 17.0385C101.078 17.0107 101.135 16.9971 101.192 16.9971ZM101.192 17.0495C101.144 17.0495 101.097 17.0611 101.051 17.0843C101.005 17.107 100.97 17.1397 100.944 17.1826C100.918 17.225 100.905 17.2693 100.905 17.3153C100.905 17.3613 100.918 17.4053 100.943 17.4473C100.969 17.4892 101.004 17.5221 101.05 17.5457C101.095 17.5688 101.143 17.5805 101.192 17.5805C101.242 17.5805 101.29 17.5688 101.335 17.5457C101.38 17.5221 101.416 17.4892 101.441 17.4473C101.466 17.405 101.479 17.3613 101.479 17.3153C101.479 17.2693 101.466 17.225 101.44 17.1826C101.415 17.1397 101.379 17.107 101.333 17.0843C101.287 17.0612 101.241 17.0495 101.192 17.0495ZM101.042 17.4913V17.1487H101.169C101.212 17.1487 101.244 17.152 101.263 17.1585C101.283 17.1646 101.298 17.1756 101.31 17.1915C101.322 17.2073 101.327 17.2238 101.327 17.2416C101.327 17.2666 101.318 17.2885 101.298 17.307C101.279 17.3254 101.254 17.3361 101.222 17.3381C101.234 17.3432 101.245 17.3493 101.253 17.3562C101.268 17.3697 101.286 17.3924 101.308 17.4241L101.353 17.4912H101.28L101.247 17.4373C101.221 17.3947 101.201 17.3683 101.185 17.3575C101.174 17.3496 101.158 17.3457 101.137 17.3457H101.102V17.4914L101.042 17.4913ZM101.102 17.2985H101.174C101.209 17.2985 101.232 17.2937 101.245 17.2842C101.257 17.2748 101.264 17.2621 101.264 17.2462C101.264 17.2361 101.261 17.227 101.255 17.2193C101.249 17.2111 101.24 17.2052 101.229 17.2011C101.218 17.1972 101.199 17.1952 101.17 17.1952H101.102V17.2985Z" fill="#6F3C2E"/>
<path d="M169 0H120V30H169V0Z" fill="#6F3C2E"/>
<path d="M131.934 10.6913H130.846C130.826 10.5504 130.785 10.4253 130.724 10.316C130.662 10.2049 130.584 10.1105 130.488 10.0326C130.391 9.95465 130.28 9.89499 130.154 9.85356C130.03 9.81213 129.895 9.79142 129.749 9.79142C129.486 9.79142 129.256 9.85688 129.061 9.9878C128.865 10.1171 128.714 10.306 128.606 10.5546C128.498 10.8015 128.444 11.1015 128.444 11.4544C128.444 11.8174 128.498 12.1223 128.606 12.3692C128.715 12.6161 128.868 12.8026 129.063 12.9285C129.259 13.0545 129.485 13.1174 129.742 13.1174C129.886 13.1174 130.019 13.0984 130.142 13.0603C130.266 13.0222 130.377 12.9666 130.473 12.8937C130.569 12.8191 130.648 12.7288 130.711 12.6228C130.776 12.5167 130.821 12.3957 130.846 12.2598L131.934 12.2648C131.906 12.4985 131.836 12.7239 131.723 12.941C131.612 13.1564 131.462 13.3495 131.273 13.5201C131.086 13.6892 130.862 13.8234 130.602 13.9228C130.343 14.0206 130.051 14.0695 129.724 14.0695C129.27 14.0695 128.864 13.9668 128.506 13.7613C128.15 13.5558 127.868 13.2583 127.661 12.8689C127.456 12.4794 127.353 12.0079 127.353 11.4544C127.353 10.8993 127.457 10.427 127.666 10.0375C127.875 9.64807 128.158 9.35143 128.516 9.1476C128.874 8.9421 129.277 8.83936 129.724 8.83936C130.019 8.83936 130.293 8.88079 130.545 8.96365C130.798 9.04651 131.023 9.16748 131.218 9.32657C131.414 9.48401 131.573 9.67707 131.696 9.90576C131.82 10.1345 131.9 10.3963 131.934 10.6913ZM133.488 13.9999H132.335L134.092 8.90896H135.479L137.234 13.9999H136.081L134.805 10.0723H134.766L133.488 13.9999ZM133.416 11.9988H136.14V12.839H133.416V11.9988ZM140.492 10.3731C140.472 10.1726 140.387 10.0168 140.236 9.90576C140.085 9.79473 139.881 9.73922 139.622 9.73922C139.447 9.73922 139.298 9.76407 139.177 9.81379C139.056 9.86185 138.964 9.92897 138.899 10.0152C138.836 10.1013 138.804 10.1991 138.804 10.3085C138.801 10.3996 138.82 10.4792 138.862 10.5471C138.905 10.6151 138.964 10.6739 139.038 10.7236C139.113 10.7717 139.199 10.8139 139.297 10.8504C139.394 10.8852 139.499 10.915 139.61 10.9399L140.067 11.0493C140.289 11.099 140.493 11.1653 140.679 11.2481C140.864 11.331 141.025 11.4329 141.161 11.5539C141.297 11.6749 141.402 11.8174 141.477 11.9814C141.553 12.1455 141.592 12.3336 141.593 12.5457C141.592 12.8573 141.512 13.1274 141.355 13.3561C141.199 13.5831 140.974 13.7596 140.679 13.8856C140.385 14.0098 140.032 14.072 139.617 14.072C139.206 14.072 138.848 14.009 138.543 13.8831C138.24 13.7571 138.003 13.5707 137.832 13.3238C137.663 13.0752 137.575 12.7678 137.566 12.4015H138.608C138.62 12.5722 138.669 12.7147 138.755 12.8291C138.843 12.9418 138.959 13.0271 139.105 13.0851C139.253 13.1415 139.419 13.1696 139.605 13.1696C139.787 13.1696 139.945 13.1431 140.08 13.0901C140.216 13.0371 140.321 12.9633 140.395 12.8689C140.47 12.7744 140.507 12.6659 140.507 12.5432C140.507 12.4289 140.473 12.3328 140.405 12.2549C140.339 12.177 140.241 12.1107 140.112 12.056C139.984 12.0013 139.828 11.9516 139.642 11.9069L139.088 11.7677C138.659 11.6633 138.32 11.5 138.071 11.278C137.823 11.0559 137.699 10.7568 137.701 10.3806C137.699 10.0723 137.781 9.80302 137.947 9.57267C138.114 9.34232 138.344 9.16251 138.635 9.03325C138.927 8.90399 139.258 8.83936 139.63 8.83936C140.008 8.83936 140.337 8.90399 140.619 9.03325C140.902 9.16251 141.123 9.34232 141.28 9.57267C141.438 9.80302 141.519 10.0699 141.524 10.3731H140.492ZM142.317 13.9999V8.90896H143.394V11.0095H145.579V8.90896H146.653V13.9999H145.579V11.8969H143.394V13.9999H142.317ZM153.839 11.4544C153.839 12.0096 153.733 12.4819 153.523 12.8713C153.314 13.2608 153.029 13.5583 152.668 13.7637C152.308 13.9676 151.904 14.0695 151.455 14.0695C151.002 14.0695 150.596 13.9668 150.237 13.7613C149.877 13.5558 149.593 13.2583 149.384 12.8689C149.175 12.4794 149.071 12.0079 149.071 11.4544C149.071 10.8993 149.175 10.427 149.384 10.0375C149.593 9.64807 149.877 9.35143 150.237 9.1476C150.596 8.9421 151.002 8.83936 151.455 8.83936C151.904 8.83936 152.308 8.9421 152.668 9.1476C153.029 9.35143 153.314 9.64807 153.523 10.0375C153.733 10.427 153.839 10.8993 153.839 11.4544ZM152.747 11.4544C152.747 11.0948 152.693 10.7916 152.586 10.5446C152.48 10.2977 152.33 10.1105 152.136 9.98282C151.942 9.85522 151.715 9.79142 151.455 9.79142C151.194 9.79142 150.967 9.85522 150.774 9.98282C150.58 10.1105 150.429 10.2977 150.321 10.5446C150.215 10.7916 150.162 11.0948 150.162 11.4544C150.162 11.8141 150.215 12.1173 150.321 12.3642C150.429 12.6112 150.58 12.7984 150.774 12.926C150.967 13.0536 151.194 13.1174 151.455 13.1174C151.715 13.1174 151.942 13.0536 152.136 12.926C152.33 12.7984 152.48 12.6112 152.586 12.3642C152.693 12.1173 152.747 11.8141 152.747 11.4544ZM158.894 8.90896V13.9999H157.964L155.749 10.7957H155.712V13.9999H154.636V8.90896H155.58L157.778 12.1107H157.823V8.90896H158.894ZM129.247 21.9999H127.442V16.909H129.262C129.774 16.909 130.215 17.0109 130.585 17.2147C130.954 17.4169 131.238 17.7078 131.437 18.0873C131.638 18.4668 131.738 18.9208 131.738 19.4495C131.738 19.9798 131.638 20.4355 131.437 20.8167C131.238 21.1978 130.952 21.4903 130.58 21.6941C130.208 21.898 129.764 21.9999 129.247 21.9999ZM128.519 21.0777H129.202C129.521 21.0777 129.788 21.0213 130.005 20.9086C130.224 20.7943 130.388 20.6178 130.498 20.3792C130.609 20.1389 130.664 19.829 130.664 19.4495C130.664 19.0733 130.609 18.7659 130.498 18.5272C130.388 18.2886 130.225 18.1129 130.008 18.0003C129.791 17.8876 129.523 17.8312 129.205 17.8312H128.519V21.0777ZM132.535 21.9999V16.909H135.966V17.7964H133.612V19.0095H135.789V19.8969H133.612V21.1125H135.976V21.9999H132.535ZM136.821 21.9999V16.909H137.898V21.1125H140.08V21.9999H136.821ZM141.869 16.909V21.9999H140.793V16.909H141.869ZM143.675 16.909L144.905 20.7769H144.952L146.185 16.909H147.379L145.624 21.9999H144.237L142.479 16.909H143.675ZM147.991 21.9999V16.909H151.422V17.7964H149.068V19.0095H151.245V19.8969H149.068V21.1125H151.432V21.9999H147.991ZM152.277 21.9999V16.909H154.286C154.67 16.909 154.999 16.9778 155.27 17.1153C155.544 17.2512 155.752 17.4443 155.894 17.6945C156.038 17.9431 156.111 18.2356 156.111 18.572C156.111 18.9101 156.038 19.2009 155.892 19.4445C155.746 19.6865 155.535 19.8721 155.258 20.0013C154.983 20.1306 154.65 20.1952 154.259 20.1952H152.914V19.3302H154.085C154.29 19.3302 154.461 19.302 154.597 19.2456C154.733 19.1893 154.834 19.1048 154.9 18.9921C154.968 18.8794 155.002 18.7394 155.002 18.572C155.002 18.403 154.968 18.2604 154.9 18.1444C154.834 18.0284 154.732 17.9406 154.594 17.8809C154.458 17.8196 154.287 17.789 154.08 17.789H153.354V21.9999H152.277ZM155.027 19.6831L156.292 21.9999H155.104L153.866 19.6831H155.027ZM156.361 16.909H157.567L158.727 19.1015H158.777L159.938 16.909H161.144L159.287 20.2002V21.9999H158.218V20.2002L156.361 16.909Z" fill="white"/>
</svg>
